<?xml version="1.0"?><svg width="533.3333333333333" height="533.3333333333333" xmlns="http://www.w3.org/2000/svg">
 <title>Lock Jail Free</title>
 <g>
  <title>Layer 1</title>
  <g id="g835">
   <path d="m68.53479,243.756439l261.867004,0.791016l0,194.619995l-260.285004,1.582001l-1.582001,-196.993011z" id="path566" stroke-linejoin="round" stroke-width="10" stroke="black" fill-rule="evenodd" fill="#fff600"/>
   <path d="m67.53479,245.965454c-10.285,-3.165009 -30.063992,-3.165009 -37.18399,-27.690002c0,0.790985 0,201.73999 0,201.73999c0,0 11.076,25.317017 38.765991,23.735016c0.791016,-9.494019 -1.582001,-200.159027 -1.582001,-197.785004z" id="path567" stroke-linejoin="round" stroke-width="10" stroke="black" fill-rule="evenodd" fill="#ffdd00"/>
   <path d="m31.1418,219.066437c5.801991,-11.867004 177.744003,-5.537994 266.615005,-4.747009c7.911011,0 28.480988,11.076019 31.644989,32.437012c0.001007,2.373016 -262.657997,0 -262.657997,0c-2.373009,-3.955994 -26.898998,0 -35.601997,-27.690002z" id="path568" stroke-linejoin="round" stroke-width="10" stroke="black" fill-rule="evenodd" fill="#fff600"/>
   <path d="m518.000671,227.960678c0,-0.791016 2.478577,-77.532013 0.826172,-104.430817c-32.226929,-112.341902 -221.460632,-77.531731 -223.939209,-1.582214c-2.478607,43.513016 -0.826202,107.595032 -0.826202,106.804016c6.611664,12.65799 33.053131,8.701996 38.837555,0.791016c0,-9.494019 0.82724,-50.633026 0.001038,-103.63942c19.831879,-62.5 134.694214,-56.170898 148.741638,-4.746902c0,53.797302 -0.826172,109.177307 -0.826172,109.177307c4.957153,7.911011 30.573486,14.240997 37.185181,-2.372986z" id="path569" stroke-linejoin="round" stroke-width="10" stroke="black" fill-rule="evenodd" fill="#4c4c4c" transform="rotate(-0.3604912757873535 406.4583740234339,144.9955444335961) "/>
   <path d="m146.647995,417.643005l103.639999,0.790985l-35.600983,-90.981995c15.031982,2.373016 40.347992,-59.334991 -15.822998,-65.664001c-57.753021,7.119995 -37.974014,63.291016 -18.196014,67.247009l-34.020004,88.608002z" id="path570" stroke-width="3.75" stroke="black" fill-rule="evenodd" fill="#000000"/>
   <path d="m73.863998,435.838989c0,0 19.779015,-139.240997 90.190002,-178.796997c-20.569,-6.329987 -97.309998,-6.329987 -90.190002,0.790009c-0.791,14.240997 -0.791,179.588989 0,178.006989z" id="path572" stroke-width="1pt" fill-rule="evenodd" fill="#ffdd00"/>
   <path d="m73.863998,217.483994c-11.867008,-0.791 -31.595997,0.878006 -36.391998,2.374008c-2.598,9.309998 15.822998,18.195999 27.690002,21.360001c29.007996,4.746994 56.43399,3.164993 84.651001,2.373993c-22.943001,-1.845993 -63.291,1.846008 -68.82901,-5.537994c-6.328995,-4.483002 -11.866997,-13.712997 -7.119995,-20.570007z" id="path573" stroke-width="1pt" fill-rule="evenodd" fill="#ffdd00"/>
   <path d="m321.48999,251.503006c0,0 7.121002,171.677994 -2.372986,185.917984c-14.240997,0.791016 -79.904999,-0.790985 -79.904999,-0.790985c27.690002,-20.570007 68.037994,-53.007019 82.277985,-185.126999z" id="path574" fill-opacity="0.75" stroke-width="1pt" fill-rule="evenodd" fill="#ffffff"/>
   <path d="m298.548004,217.483994c0,0 7.911011,8.703003 2.372986,15.032013c-2.372986,9.493988 -53.798004,11.075989 -68.828979,11.865997c22.151978,0.791992 83.069,0 90.980988,-1.582001c5.537994,-1.582001 -16.613983,-27.689011 -24.524994,-25.31601z" id="path575" fill-opacity="0.75" stroke-width="1pt" fill-rule="evenodd" fill="#ffffff"/>
  </g>
 </g>
</svg>